# xmcd CD database file
#
# Track frame offsets:
#	150
#	15300
#	28950
#	43725
#	59250
#	81525
#	102675
#	119325
#	132225
#	150000
#
# Disc length: 2275 seconds
#
# Revision: 0
# Processed by: cddbd v1.5.2PL0 Copyright (c) Steve Scherf et al.
# Submitted via: CDex 1.51
#
DISCID=7f08e10a
DTITLE=Swamp Thing - Balladeer
DYEAR=2011
DGENRE=Blues
TTITLE0=Balladeer
TTITLE1=Can't Eat
TTITLE2=Never Be
TTITLE3=Bones
TTITLE4=Freedom
TTITLE5=Friend
TTITLE6=Gimme You Thing
TTITLE7=Good Thing
TTITLE8=Danger Money
TTITLE9=Manza
EXTD=YEAR: 2011
EXTT0=
EXTT1=
EXTT2=
EXTT3=
EXTT4=
EXTT5=
EXTT6=
EXTT7=
EXTT8=
EXTT9=
PLAYORDER=
